<?xml version="1.0" encoding="UTF-8" standalone="no"?>
<!DOCTYPE svg PUBLIC "-//W3C//DTD SVG 1.1//EN" "http://www.w3.org/Graphics/SVG/1.1/DTD/svg11.dtd">
<svg version="1.1" xmlns="http://www.w3.org/2000/svg" xmlns:xlink="http://www.w3.org/1999/xlink" preserveAspectRatio="xMidYMid meet" viewBox="0 0 640 640" width="640" height="640"><defs><path d="M384 53.33C384 23.94 407.91 0 437.33 0C466.75 0 490.67 23.94 490.67 53.33C490.67 82.73 466.75 106.67 437.33 106.67C407.91 106.67 384 82.73 384 53.33ZM405.33 53.33C405.33 70.98 419.69 85.33 437.33 85.33C454.98 85.33 469.33 70.98 469.33 53.33C469.33 35.69 454.98 21.33 437.33 21.33C419.69 21.33 405.33 35.69 405.33 53.33Z" id="bmx3vrtC7"></path><path d="M493.78 124.89C490.58 121.69 464.98 96.09 461.78 92.89C457.62 88.73 457.62 81.96 461.78 77.8C465.94 73.64 472.7 73.64 476.86 77.8C480.06 81 505.66 106.6 508.86 109.8C513.02 113.96 513.02 120.73 508.86 124.89C506.79 126.95 504.06 128 501.33 128C498.6 128 495.87 126.95 493.78 124.89Z" id="d1PHmRt8Qo"></path><path d="M32 128C14.36 128 0 113.64 0 96C0 89.6 0 38.4 0 32C0 14.36 14.36 0 32 0C59.73 0 281.6 0 309.33 0C326.98 0 341.33 14.36 341.33 32C341.33 38.4 341.33 89.6 341.33 96C341.33 113.64 326.98 128 309.33 128C253.87 128 59.73 128 32 128ZM32 21.33C26.13 21.33 21.33 26.11 21.33 32C21.33 38.4 21.33 89.6 21.33 96C21.33 101.89 26.13 106.67 32 106.67C59.73 106.67 281.6 106.67 309.33 106.67C315.2 106.67 320 101.89 320 96C320 89.6 320 38.4 320 32C320 26.11 315.2 21.33 309.33 21.33C253.87 21.33 87.47 21.33 32 21.33Z" id="c1jXMjKy0x"></path><path d="M32 320C14.36 320 0 305.64 0 288C0 281.6 0 230.4 0 224C0 206.36 14.36 192 32 192C76.8 192 435.2 192 480 192C497.64 192 512 206.36 512 224C512 230.4 512 281.6 512 288C512 305.64 497.64 320 480 320C390.4 320 76.8 320 32 320ZM32 213.33C26.13 213.33 21.33 218.11 21.33 224C21.33 230.4 21.33 281.6 21.33 288C21.33 293.89 26.13 298.67 32 298.67C76.8 298.67 435.2 298.67 480 298.67C485.87 298.67 490.67 293.89 490.67 288C490.67 281.6 490.67 230.4 490.67 224C490.67 218.11 485.87 213.33 480 213.33C390.4 213.33 121.6 213.33 32 213.33Z" id="b337CgS9mv"></path><path d="M0 448C0 412.71 28.71 384 64 384C99.29 384 128 412.71 128 448C128 483.29 99.29 512 64 512C28.71 512 0 483.29 0 448ZM21.33 448C21.33 471.53 40.47 490.67 64 490.67C87.53 490.67 106.67 471.53 106.67 448C106.67 424.47 87.53 405.33 64 405.33C40.47 405.33 21.33 424.47 21.33 448Z" id="b3qXaPq6aB"></path><path d="M181.32 426.67C175.43 426.67 170.65 421.89 170.65 416C170.65 410.11 175.43 405.33 181.32 405.33C213.32 405.33 469.32 405.33 501.32 405.33C507.21 405.33 511.98 410.11 511.98 416C511.98 421.89 507.21 426.67 501.32 426.67C437.32 426.67 213.32 426.67 181.32 426.67Z" id="a2NvAVbiBf"></path><path d="M181.33 490.67C175.45 490.67 170.67 485.89 170.67 480C170.67 474.11 175.45 469.33 181.33 469.33C213.33 469.33 469.33 469.33 501.33 469.33C507.22 469.33 512 474.11 512 480C512 485.89 507.22 490.67 501.33 490.67C437.33 490.67 213.33 490.67 181.33 490.67Z" id="c1q74aPnfD"></path></defs><g><g><g><use xlink:href="#bmx3vrtC7" opacity="1" fill="#ffffff" fill-opacity="1"></use><g><use xlink:href="#bmx3vrtC7" opacity="1" fill-opacity="0" stroke="#000000" stroke-width="1" stroke-opacity="0"></use></g></g><g><use xlink:href="#d1PHmRt8Qo" opacity="1" fill="#ffffff" fill-opacity="1"></use><g><use xlink:href="#d1PHmRt8Qo" opacity="1" fill-opacity="0" stroke="#000000" stroke-width="1" stroke-opacity="0"></use></g></g><g><use xlink:href="#c1jXMjKy0x" opacity="1" fill="#ffffff" fill-opacity="1"></use><g><use xlink:href="#c1jXMjKy0x" opacity="1" fill-opacity="0" stroke="#000000" stroke-width="1" stroke-opacity="0"></use></g></g><g><use xlink:href="#b337CgS9mv" opacity="1" fill="#ffffff" fill-opacity="1"></use><g><use xlink:href="#b337CgS9mv" opacity="1" fill-opacity="0" stroke="#000000" stroke-width="1" stroke-opacity="0"></use></g></g><g><use xlink:href="#b3qXaPq6aB" opacity="1" fill="#ffffff" fill-opacity="1"></use><g><use xlink:href="#b3qXaPq6aB" opacity="1" fill-opacity="0" stroke="#000000" stroke-width="1" stroke-opacity="0"></use></g></g><g><use xlink:href="#a2NvAVbiBf" opacity="1" fill="#ffffff" fill-opacity="1"></use><g><use xlink:href="#a2NvAVbiBf" opacity="1" fill-opacity="0" stroke="#000000" stroke-width="1" stroke-opacity="0"></use></g></g><g><use xlink:href="#c1q74aPnfD" opacity="1" fill="#ffffff" fill-opacity="1"></use><g><use xlink:href="#c1q74aPnfD" opacity="1" fill-opacity="0" stroke="#000000" stroke-width="1" stroke-opacity="0"></use></g></g></g></g></svg>